<svg xmlns="http://www.w3.org/2000/svg" xmlns:xlink="http://www.w3.org/1999/xlink" width="50" zoomAndPan="magnify" viewBox="0 0 37.5 37.499999" height="50" preserveAspectRatio="xMidYMid meet" version="1.0"><defs><clipPath id="79ea2116b1"><path d="M 0 0 L 37.007812 0 L 37.007812 37.007812 L 0 37.007812 Z M 0 0 " clip-rule="nonzero"/></clipPath><clipPath id="8200bfd818"><path d="M 0 0 L 37.007812 0 L 37.007812 36.820312 L 0 36.820312 Z M 0 0 " clip-rule="nonzero"/></clipPath></defs><g clip-path="url(#79ea2116b1)"><path fill="#ffffff" d="M 0 0 L 37.007812 0 L 37.007812 37.007812 L 0 37.007812 Z M 0 0 " fill-opacity="1" fill-rule="nonzero"/><path fill="#ffffff" d="M 0 0 L 37.007812 0 L 37.007812 37.007812 L 0 37.007812 Z M 0 0 " fill-opacity="1" fill-rule="nonzero"/></g><g clip-path="url(#8200bfd818)"><path fill="#000000" d="M 26.535156 36.820312 C 26.289062 36.820312 26.050781 36.773438 25.824219 36.679688 C 25.597656 36.585938 25.398438 36.453125 25.226562 36.28125 C 25.050781 36.109375 24.917969 35.914062 24.824219 35.6875 C 24.730469 35.464844 24.683594 35.230469 24.683594 34.988281 L 24.683594 30.222656 C 24.742188 29.667969 24.683594 29.128906 24.507812 28.597656 C 24.335938 28.070312 24.058594 27.597656 23.683594 27.183594 C 23.449219 26.929688 23.296875 26.636719 23.230469 26.300781 C 23.164062 25.964844 23.1875 25.632812 23.304688 25.3125 C 23.425781 24.992188 23.621094 24.722656 23.890625 24.507812 C 24.160156 24.292969 24.46875 24.167969 24.8125 24.125 C 29.328125 23.59375 33.492188 22.164062 33.492188 14.414062 C 33.492188 12.933594 33.078125 11.578125 32.25 10.347656 C 31.878906 9.792969 31.625 9.1875 31.492188 8.535156 C 31.363281 7.882812 31.363281 7.226562 31.492188 6.574219 C 31.660156 5.710938 31.660156 4.851562 31.492188 3.992188 C 30.097656 4.457031 28.808594 5.121094 27.625 5.988281 C 27.152344 6.320312 26.632812 6.414062 26.070312 6.261719 C 22.667969 5.308594 19.261719 5.308594 15.855469 6.261719 C 15.296875 6.414062 14.777344 6.320312 14.304688 5.988281 C 13.109375 5.113281 11.808594 4.445312 10.398438 3.992188 C 10.222656 4.851562 10.222656 5.710938 10.398438 6.574219 C 10.519531 7.234375 10.511719 7.894531 10.375 8.554688 C 10.238281 9.214844 9.980469 9.824219 9.601562 10.382812 C 8.78125 11.625 8.367188 12.984375 8.363281 14.46875 C 8.363281 21.59375 11.84375 23.5 17.058594 24.160156 C 17.410156 24.203125 17.71875 24.332031 17.992188 24.550781 C 18.265625 24.769531 18.460938 25.042969 18.578125 25.371094 C 18.6875 25.6875 18.707031 26.007812 18.636719 26.339844 C 18.566406 26.667969 18.417969 26.953125 18.1875 27.203125 C 17.425781 28.007812 17.089844 28.960938 17.171875 30.058594 L 17.171875 34.988281 C 17.171875 35.230469 17.125 35.464844 17.03125 35.6875 C 16.9375 35.914062 16.800781 36.109375 16.628906 36.28125 C 16.457031 36.453125 16.253906 36.585938 16.027344 36.679688 C 15.800781 36.773438 15.566406 36.820312 15.320312 36.820312 C 15.074219 36.820312 14.839844 36.773438 14.613281 36.679688 C 14.386719 36.585938 14.1875 36.453125 14.011719 36.28125 C 13.839844 36.109375 13.707031 35.914062 13.609375 35.6875 C 13.515625 35.464844 13.46875 35.230469 13.46875 34.988281 L 13.46875 33.941406 C 12.5625 34.046875 11.652344 34.039062 10.746094 33.917969 C 9.839844 33.800781 8.960938 33.574219 8.109375 33.242188 C 7.257812 32.90625 6.460938 32.476562 5.71875 31.945312 C 4.976562 31.417969 4.308594 30.804688 3.71875 30.113281 C 3.105469 29.441406 2.390625 28.90625 1.574219 28.5 C 1.335938 28.441406 1.117188 28.335938 0.921875 28.191406 C 0.722656 28.046875 0.5625 27.867188 0.4375 27.65625 C 0.3125 27.449219 0.234375 27.222656 0.199219 26.980469 C 0.164062 26.742188 0.179688 26.503906 0.238281 26.265625 C 0.300781 26.03125 0.40625 25.816406 0.554688 25.621094 C 0.703125 25.425781 0.882812 25.269531 1.09375 25.144531 C 1.304688 25.019531 1.53125 24.941406 1.777344 24.90625 C 2.019531 24.875 2.261719 24.886719 2.496094 24.949219 C 3.945312 25.46875 5.175781 26.300781 6.199219 27.4375 C 8.050781 29.269531 9.898438 30.882812 13.414062 30.222656 C 13.351562 29.230469 13.496094 28.265625 13.839844 27.328125 C 10.027344 26.375 4.589844 23.664062 4.589844 14.507812 C 4.582031 12.289062 5.199219 10.253906 6.4375 8.40625 C 6.671875 8.058594 6.753906 7.679688 6.679688 7.269531 C 6.296875 5.25 6.5 3.289062 7.289062 1.390625 C 7.515625 0.859375 7.902344 0.511719 8.457031 0.34375 C 9.085938 0.160156 11.34375 -0.203125 15.617188 2.542969 C 19.125 1.707031 22.636719 1.707031 26.144531 2.542969 C 30.417969 -0.203125 32.675781 0.144531 33.289062 0.34375 C 33.839844 0.511719 34.230469 0.859375 34.453125 1.390625 C 35.242188 3.296875 35.445312 5.261719 35.0625 7.289062 C 34.984375 7.664062 35.050781 8.011719 35.265625 8.332031 C 36.507812 10.1875 37.125 12.226562 37.117188 14.449219 C 37.117188 23.738281 31.714844 26.433594 27.867188 27.273438 C 28.207031 28.265625 28.34375 29.285156 28.273438 30.332031 L 28.273438 34.988281 C 28.273438 35.21875 28.230469 35.445312 28.144531 35.664062 C 28.058594 35.878906 27.933594 36.074219 27.769531 36.246094 C 27.609375 36.414062 27.421875 36.550781 27.207031 36.648438 C 26.992188 36.75 26.769531 36.804688 26.535156 36.820312 Z M 26.535156 36.820312 " fill-opacity="1" fill-rule="nonzero"/></g></svg>