<svg xmlns="http://www.w3.org/2000/svg" xmlns:xlink="http://www.w3.org/1999/xlink" width="100" zoomAndPan="magnify" viewBox="0 0 75 63.749997" height="85" preserveAspectRatio="xMidYMid meet" version="1.0"><defs><clipPath id="72c5226385"><path d="M 0.148438 0 L 74.851562 0 L 74.851562 63.5 L 0.148438 63.5 Z M 0.148438 0 " clip-rule="nonzero"/></clipPath><clipPath id="bbe5e93b1b"><path d="M 8.367188 0 L 66.640625 0 L 66.640625 63.5 L 8.367188 63.5 Z M 8.367188 0 " clip-rule="nonzero"/></clipPath></defs><g clip-path="url(#72c5226385)"><path fill="#ffffff" d="M 0.148438 0 L 74.851562 0 L 74.851562 63.5 L 0.148438 63.5 Z M 0.148438 0 " fill-opacity="1" fill-rule="nonzero"/><path fill="#ffffff" d="M 0.148438 0 L 74.851562 0 L 74.851562 63.5 L 0.148438 63.5 Z M 0.148438 0 " fill-opacity="1" fill-rule="nonzero"/></g><g clip-path="url(#bbe5e93b1b)"><path fill="#2196f3" d="M 66.273438 0.433594 C 66.011719 0.144531 65.683594 0 65.292969 0 L 9.71875 0 C 9.53125 0 9.351562 0.0351562 9.179688 0.113281 C 9.007812 0.1875 8.859375 0.292969 8.730469 0.433594 C 8.605469 0.570312 8.511719 0.730469 8.453125 0.910156 C 8.394531 1.085938 8.375 1.269531 8.394531 1.457031 L 13.6875 54.371094 C 13.710938 54.632812 13.808594 54.863281 13.96875 55.066406 C 14.132812 55.269531 14.335938 55.414062 14.585938 55.496094 L 38.402344 63.433594 C 38.539062 63.480469 38.683594 63.5 38.828125 63.5 C 38.988281 63.5 39.144531 63.472656 39.292969 63.417969 L 60.464844 55.480469 C 60.703125 55.390625 60.898438 55.246094 61.050781 55.046875 C 61.207031 54.847656 61.296875 54.625 61.324219 54.371094 L 66.613281 1.457031 C 66.652344 1.0625 66.539062 0.722656 66.273438 0.433594 Z M 66.273438 0.433594 " fill-opacity="1" fill-rule="nonzero"/></g><path fill="#fafafa" d="M 38.828125 50.273438 C 38.683594 50.269531 38.546875 50.25 38.410156 50.207031 L 26.5 46.238281 C 26.015625 46.074219 25.722656 45.746094 25.621094 45.246094 L 24.300781 38.628906 C 24.265625 38.457031 24.261719 38.285156 24.296875 38.113281 C 24.328125 37.941406 24.394531 37.78125 24.492188 37.636719 C 24.589844 37.488281 24.710938 37.367188 24.855469 37.269531 C 25 37.171875 25.160156 37.101562 25.332031 37.066406 C 25.503906 37.03125 25.675781 37.03125 25.847656 37.066406 C 26.019531 37.097656 26.179688 37.164062 26.324219 37.261719 C 26.472656 37.359375 26.59375 37.480469 26.691406 37.625 C 26.789062 37.769531 26.859375 37.929688 26.894531 38.101562 L 28.066406 43.960938 L 38.800781 47.546875 L 48.238281 44.007812 L 53.132812 15.875 L 22.949219 15.875 C 22.773438 15.875 22.605469 15.839844 22.441406 15.773438 C 22.28125 15.707031 22.136719 15.613281 22.015625 15.488281 C 21.890625 15.363281 21.792969 15.21875 21.726562 15.058594 C 21.660156 14.898438 21.625 14.726562 21.625 14.550781 C 21.625 14.375 21.660156 14.207031 21.726562 14.046875 C 21.792969 13.882812 21.890625 13.742188 22.015625 13.617188 C 22.136719 13.492188 22.28125 13.398438 22.441406 13.328125 C 22.605469 13.261719 22.773438 13.230469 22.949219 13.230469 L 54.707031 13.230469 C 54.902344 13.230469 55.089844 13.269531 55.265625 13.351562 C 55.441406 13.433594 55.59375 13.550781 55.71875 13.699219 C 55.847656 13.851562 55.933594 14.019531 55.984375 14.207031 C 56.035156 14.398438 56.042969 14.585938 56.011719 14.78125 L 50.71875 45.207031 C 50.632812 45.703125 50.351562 46.042969 49.878906 46.21875 L 39.292969 50.1875 C 39.144531 50.242188 38.988281 50.273438 38.828125 50.273438 Z M 38.828125 50.273438 " fill-opacity="1" fill-rule="nonzero"/><path fill="#fafafa" d="M 52.058594 29.105469 L 24.273438 29.105469 C 24.097656 29.105469 23.929688 29.070312 23.765625 29.003906 C 23.605469 28.9375 23.460938 28.839844 23.335938 28.71875 C 23.214844 28.59375 23.117188 28.449219 23.050781 28.289062 C 22.984375 28.125 22.949219 27.957031 22.949219 27.78125 C 22.949219 27.605469 22.984375 27.4375 23.050781 27.277344 C 23.117188 27.113281 23.214844 26.96875 23.335938 26.847656 C 23.460938 26.722656 23.605469 26.625 23.765625 26.558594 C 23.929688 26.492188 24.097656 26.457031 24.273438 26.457031 L 52.058594 26.457031 C 52.234375 26.457031 52.402344 26.492188 52.566406 26.558594 C 52.726562 26.625 52.871094 26.722656 52.996094 26.847656 C 53.121094 26.96875 53.214844 27.113281 53.28125 27.277344 C 53.347656 27.4375 53.382812 27.605469 53.382812 27.78125 C 53.382812 27.957031 53.347656 28.125 53.28125 28.289062 C 53.214844 28.449219 53.121094 28.59375 52.996094 28.71875 C 52.871094 28.839844 52.726562 28.9375 52.566406 29.003906 C 52.402344 29.070312 52.234375 29.105469 52.058594 29.105469 Z M 52.058594 29.105469 " fill-opacity="1" fill-rule="nonzero"/></svg>