<svg xmlns="http://www.w3.org/2000/svg" xmlns:xlink="http://www.w3.org/1999/xlink" width="100" zoomAndPan="magnify" viewBox="0 0 75 63.749997" height="85" preserveAspectRatio="xMidYMid meet" version="1.0"><defs><clipPath id="0e41925c57"><path d="M 0.148438 0 L 74.851562 0 L 74.851562 63.5 L 0.148438 63.5 Z M 0.148438 0 " clip-rule="nonzero"/></clipPath><clipPath id="18d6e16d9a"><path d="M 16.957031 12 L 61.78125 12 L 61.78125 63.5 L 16.957031 63.5 Z M 16.957031 12 " clip-rule="nonzero"/></clipPath></defs><g clip-path="url(#0e41925c57)"><path fill="#ffffff" d="M 0.148438 0 L 74.851562 0 L 74.851562 63.5 L 0.148438 63.5 Z M 0.148438 0 " fill-opacity="1" fill-rule="nonzero"/><path fill="#ffffff" d="M 0.148438 0 L 74.851562 0 L 74.851562 63.5 L 0.148438 63.5 Z M 0.148438 0 " fill-opacity="1" fill-rule="nonzero"/></g><g clip-path="url(#18d6e16d9a)"><path fill="#e44d26" d="M 61.769531 12.480469 L 57.691406 58.390625 L 39.347656 63.5 L 21.058594 58.398438 L 16.980469 12.480469 L 61.769531 12.476562 Z M 61.769531 12.480469 " fill-opacity="1" fill-rule="nonzero"/></g><path fill="#f16529" d="M 39.375 59.59375 L 54.199219 55.46875 L 57.683594 16.234375 L 39.375 16.234375 Z M 39.375 59.59375 " fill-opacity="1" fill-rule="nonzero"/><path fill="#ebebeb" d="M 31.445312 27.496094 L 39.375 27.496094 L 39.375 21.863281 L 25.316406 21.863281 L 25.449219 23.375 L 26.828125 38.894531 L 39.375 38.894531 L 39.375 33.265625 L 31.957031 33.265625 Z M 31.445312 27.496094 " fill-opacity="1" fill-rule="nonzero"/><path fill="#ebebeb" d="M 32.707031 41.710938 L 27.078125 41.710938 L 27.863281 50.554688 L 39.351562 53.757812 L 39.375 53.75 L 39.375 47.890625 L 39.351562 47.898438 L 33.105469 46.203125 Z M 32.707031 41.710938 " fill-opacity="1" fill-rule="nonzero"/><path fill="#000000" d="M 21.148438 0 L 24 0 L 24 2.828125 L 26.605469 2.828125 L 26.605469 0 L 29.453125 0 L 29.453125 8.5625 L 26.605469 8.5625 L 26.605469 5.695312 L 24 5.695312 L 24 8.5625 L 21.148438 8.5625 Z M 21.148438 0 " fill-opacity="1" fill-rule="nonzero"/><path fill="#000000" d="M 33.203125 2.839844 L 30.695312 2.839844 L 30.695312 0 L 38.5625 0 L 38.5625 2.839844 L 36.050781 2.839844 L 36.050781 8.5625 L 33.203125 8.5625 Z M 33.203125 2.839844 " fill-opacity="1" fill-rule="nonzero"/><path fill="#000000" d="M 39.808594 0 L 42.78125 0 L 44.609375 3.007812 L 46.433594 0 L 49.40625 0 L 49.40625 8.5625 L 46.570312 8.5625 L 46.570312 4.320312 L 44.609375 7.363281 L 44.558594 7.363281 L 42.597656 4.320312 L 42.597656 8.5625 L 39.808594 8.5625 Z M 39.808594 0 " fill-opacity="1" fill-rule="nonzero"/><path fill="#000000" d="M 50.824219 0 L 53.675781 0 L 53.675781 5.734375 L 57.683594 5.734375 L 57.683594 8.5625 L 50.824219 8.5625 Z M 50.824219 0 " fill-opacity="1" fill-rule="nonzero"/><path fill="#ffffff" d="M 39.355469 38.894531 L 46.261719 38.894531 L 45.609375 46.199219 L 39.355469 47.894531 L 39.355469 53.753906 L 50.851562 50.554688 L 50.9375 49.601562 L 52.253906 34.777344 L 52.390625 33.265625 L 39.355469 33.265625 Z M 39.355469 38.894531 " fill-opacity="1" fill-rule="nonzero"/><path fill="#ffffff" d="M 39.355469 27.484375 L 39.355469 27.496094 L 52.898438 27.496094 L 53.011719 26.230469 L 53.269531 23.375 L 53.402344 21.863281 L 39.355469 21.863281 Z M 39.355469 27.484375 " fill-opacity="1" fill-rule="nonzero"/></svg>