<svg xmlns="http://www.w3.org/2000/svg" xmlns:xlink="http://www.w3.org/1999/xlink" width="50" zoomAndPan="magnify" viewBox="0 0 37.5 37.499999" height="50" preserveAspectRatio="xMidYMid meet" version="1.0"><defs><clipPath id="27b5178546"><path d="M 0 0 L 37.007812 0 L 37.007812 37.007812 L 0 37.007812 Z M 0 0 " clip-rule="nonzero"/></clipPath><clipPath id="41792866ae"><path d="M 0 0 L 37.007812 0 L 37.007812 36.710938 L 0 36.710938 Z M 0 0 " clip-rule="nonzero"/></clipPath></defs><g clip-path="url(#27b5178546)"><path fill="#ffffff" d="M 0 0 L 37.007812 0 L 37.007812 37.007812 L 0 37.007812 Z M 0 0 " fill-opacity="1" fill-rule="nonzero"/><path fill="#2197bd" d="M 0 0 L 37.007812 0 L 37.007812 37.007812 L 0 37.007812 Z M 0 0 " fill-opacity="1" fill-rule="nonzero"/></g><g clip-path="url(#41792866ae)"><path fill="#2197bd" d="M 37.007812 31.082031 C 37.007812 34.1875 34.488281 36.707031 31.382812 36.707031 L 5.625 36.707031 C 2.519531 36.707031 0 34.1875 0 31.082031 L 0 5.324219 C 0 2.21875 2.519531 -0.296875 5.625 -0.296875 L 31.382812 -0.296875 C 34.488281 -0.296875 37.007812 2.21875 37.007812 5.324219 Z M 37.007812 31.082031 " fill-opacity="1" fill-rule="nonzero"/></g><path fill="#ffffff" d="M 14.632812 12.902344 C 14.632812 13.269531 14.5625 13.625 14.421875 13.960938 C 14.285156 14.300781 14.082031 14.601562 13.824219 14.859375 C 13.566406 15.117188 13.265625 15.316406 12.925781 15.457031 C 12.589844 15.597656 12.234375 15.667969 11.871094 15.667969 C 11.503906 15.667969 11.152344 15.597656 10.8125 15.457031 C 10.472656 15.316406 10.175781 15.117188 9.914062 14.859375 C 9.65625 14.601562 9.457031 14.300781 9.316406 13.960938 C 9.175781 13.625 9.105469 13.269531 9.105469 12.902344 C 9.105469 12.539062 9.175781 12.183594 9.316406 11.847656 C 9.457031 11.507812 9.65625 11.207031 9.914062 10.949219 C 10.175781 10.691406 10.472656 10.492188 10.8125 10.351562 C 11.152344 10.210938 11.503906 10.140625 11.871094 10.140625 C 12.234375 10.140625 12.589844 10.210938 12.925781 10.351562 C 13.265625 10.492188 13.566406 10.691406 13.824219 10.949219 C 14.082031 11.207031 14.285156 11.507812 14.421875 11.847656 C 14.5625 12.183594 14.632812 12.539062 14.632812 12.902344 Z M 14.632812 12.902344 " fill-opacity="1" fill-rule="nonzero"/><path fill="#ffffff" d="M 9.488281 17.707031 L 14.234375 17.707031 L 14.234375 32.984375 L 9.488281 32.984375 Z M 9.488281 17.707031 " fill-opacity="1" fill-rule="nonzero"/><path fill="#ffffff" d="M 17.222656 17.707031 L 21.742188 17.707031 L 21.742188 32.984375 L 17.222656 32.984375 Z M 17.222656 17.707031 " fill-opacity="1" fill-rule="nonzero"/><path fill="#ffffff" d="M 17.417969 25.839844 L 21.9375 25.839844 L 21.9375 32.984375 L 17.417969 32.984375 Z M 17.417969 25.839844 " fill-opacity="1" fill-rule="nonzero"/><path fill="#ffffff" d="M 21.9375 25.839844 C 21.9375 25.839844 21.867188 23.859375 22.390625 22.828125 C 22.390625 22.828125 22.914062 21.558594 24.554688 21.550781 C 24.554688 21.550781 26.480469 21.214844 27.035156 23.128906 C 27.035156 23.128906 27.242188 24.1875 27.242188 24.636719 C 27.242188 25.085938 27.257812 32.984375 27.257812 32.984375 L 31.992188 32.984375 L 31.992188 24.234375 C 31.992188 24.234375 32.335938 19.289062 29.371094 17.933594 C 29.371094 17.933594 24.492188 15.746094 21.84375 19.769531 C 21.84375 19.769531 21.265625 20.164062 21.183594 19.050781 C 21.105469 17.933594 20.429688 20.761719 20.410156 20.824219 C 20.390625 20.882812 21.183594 26.457031 21.183594 26.457031 Z M 21.9375 25.839844 " fill-opacity="1" fill-rule="nonzero"/></svg>